<svg width="25" height="25" viewBox="0 0 25 25" fill="none" xmlns="http://www.w3.org/2000/svg">
<rect x="0.18457" y="0.5" width="24" height="24" rx="10" fill="black"/>
<path d="M17.0439 8.33715C16.1262 7.94081 15.1552 7.65928 14.1568 7.5C14.0206 7.73036 13.897 7.96689 13.7865 8.2087C12.7264 8.05891 11.6477 8.05891 10.5875 8.2087C10.4763 7.96656 10.3514 7.73 10.2132 7.5C9.21353 7.65941 8.24145 7.94171 7.32294 8.33936C5.69018 10.5268 4.95447 13.1794 5.24759 15.822C6.31409 16.5654 7.51232 17.1321 8.78888 17.497C9.07575 17.1335 9.32935 16.7485 9.54705 16.3462C9.13221 16.2005 8.73234 16.0209 8.35222 15.8095C8.45219 15.7408 8.55056 15.6692 8.64493 15.5961C9.74956 16.0866 10.9596 16.3413 12.1854 16.3413C13.4112 16.3413 14.6213 16.0866 15.7259 15.5961C15.8211 15.6699 15.9195 15.7438 16.0186 15.8095C15.637 16.0215 15.2355 16.2014 14.819 16.3469C15.036 16.7503 15.2896 17.1361 15.5772 17.5C16.8547 17.1353 18.0538 16.5683 19.1209 15.8242C19.416 13.1799 18.6795 10.5251 17.0439 8.33715ZM9.86135 14.3168C9.50586 14.2927 9.17483 14.1407 8.93954 13.8936C8.70425 13.6464 8.58352 13.3239 8.60334 12.9953C8.58119 12.6663 8.7011 12.3426 8.93685 12.0949C9.17261 11.8473 9.50501 11.6959 9.86135 11.6739C10.0382 11.6839 10.2112 11.726 10.3704 11.798C10.5295 11.8699 10.6717 11.9703 10.7886 12.0932C10.9056 12.2161 10.995 12.3592 11.0518 12.5141C11.1085 12.6691 11.1315 12.8329 11.1194 12.9961C11.1419 13.3252 11.0222 13.6492 10.7863 13.8969C10.5505 14.1446 10.2179 14.2951 9.86135 14.3168ZM14.5111 14.3168C14.1556 14.2927 13.8246 14.1407 13.5893 13.8936C13.354 13.6464 13.2333 13.3239 13.2531 12.9953C13.2307 12.6662 13.3505 12.3423 13.5863 12.0945C13.8221 11.8467 14.1546 11.6952 14.5111 11.6732C14.688 11.6831 14.861 11.7253 15.0201 11.7973C15.1793 11.8692 15.3214 11.9695 15.4384 12.0924C15.5553 12.2154 15.6448 12.3584 15.7015 12.5134C15.7583 12.6683 15.7813 12.8321 15.7691 12.9953C15.7917 13.3245 15.672 13.6486 15.4361 13.8964C15.2003 14.1443 14.8677 14.295 14.5111 14.3168Z" fill="white"/>
</svg>
