<svg width="187" height="32" viewBox="0 0 187 32" fill="none" xmlns="http://www.w3.org/2000/svg">
<path fill-rule="evenodd" clip-rule="evenodd" d="M7.44365 27.4752C3.94811 24.8647 1.68521 20.6965 1.68521 16C1.68521 8.09361 8.09843 1.68421 16.0095 1.68421C22.5387 1.68421 29.6688 5.58376 31.3932 11.556C29.4663 4.88225 23.3095 0 16.0095 0C7.16773 0 0 7.16347 0 16C0 24.8365 7.16773 32 16.0095 32C24.8513 32 32.019 24.8365 32.019 16V15.1579L31.1395 15.1577C31.1133 15.1575 31.0738 15.1571 31.0223 15.1563C30.9191 15.1548 30.768 15.1516 30.5796 15.1452C30.2021 15.1324 29.6774 15.1068 29.0896 15.0557C27.8884 14.9513 26.5185 14.7475 25.5855 14.3751C24.0844 13.776 23.2369 12.9817 22.2686 12.0523L22.2126 11.9986C21.2426 11.0673 20.1528 10.021 18.2641 9.13273C16.4034 8.25766 14.3459 8.39805 12.834 8.70898C12.0663 8.86683 11.4086 9.07502 10.942 9.2439C10.7081 9.32854 10.5207 9.4039 10.3896 9.45907C9.62871 9.77922 8.89023 10.158 8.14354 10.5094C8.14354 10.5094 9.60855 10.911 10.3331 11.1352C10.3593 11.1433 10.4002 11.1563 10.4538 11.1743C10.561 11.2104 10.7179 11.2663 10.9077 11.3431C11.2898 11.4977 11.7925 11.7317 12.2888 12.0505C13.0704 12.5526 13.7184 13.1844 13.9841 13.96C12.325 14.178 10.7688 14.9058 9.60509 15.5899C8.89945 16.0048 8.31262 16.4188 7.90134 16.7297C7.69532 16.8854 7.5323 17.016 7.41935 17.109C7.32456 17.187 5.82655 18.5067 5.82655 18.5067C5.82655 18.5067 7.75921 18.7121 8.7129 18.9042C9.34738 19.032 10.2028 19.2376 11.095 19.5487C11.9913 19.8613 12.8968 20.2707 13.6482 20.7949C14.4012 21.3202 14.9527 21.9275 15.2249 22.6226C16.0174 24.647 15.2397 26.619 13.6781 27.7282C12.1351 28.8243 9.78924 29.0849 7.44365 27.4752ZM12.9061 29.9789C13.5369 29.7741 14.1258 29.4766 14.6545 29.101C16.7793 27.5916 17.8975 24.8267 16.7942 22.0089C16.3608 20.902 15.5325 20.0555 14.6128 19.4139C13.6915 18.7712 12.6314 18.3007 11.6502 17.9585C11.005 17.7336 10.3819 17.5599 9.8361 17.4281C10.0297 17.3019 10.2383 17.1717 10.4595 17.0416C11.7565 16.2792 13.3899 15.5789 14.9563 15.5789C17.3172 15.5789 19.0756 16.303 20.7544 17.08C20.9071 17.1505 21.0602 17.2224 21.2142 17.2946C22.7145 17.998 24.2902 18.7368 26.1208 18.7368C27.8962 18.7368 29.279 18.2352 30.2319 17.7164C29.3834 24.8136 23.3394 30.3158 16.0095 30.3158C14.9439 30.3158 13.9053 30.1995 12.9061 29.9789ZM28.411 16.682C27.7801 16.8972 27.0152 17.0526 26.1208 17.0526C24.6847 17.0526 23.4508 16.4777 21.8844 15.7478C21.7465 15.6835 21.606 15.618 21.4626 15.5517C19.8942 14.8258 18.0796 14.0565 15.7175 13.9171C15.4006 12.3541 14.2153 11.286 13.2 10.6338C13.087 10.5611 12.974 10.4922 12.8623 10.4272C12.9636 10.4034 13.0675 10.3804 13.1737 10.3586C14.5381 10.078 16.1669 10.0079 17.5465 10.6566C19.1839 11.4267 20.1075 12.3132 21.0684 13.2356L21.1013 13.2671C22.0901 14.2161 23.1359 15.2109 24.9605 15.9392C25.9741 16.3438 27.286 16.5614 28.411 16.682Z" fill="url(#paint0_linear_8_3)"/>
<path d="M42.5768 21.8947V10.5768H44.7434L46.6189 15.1202L48.4945 10.5768H50.6611V21.8947H48.9634V13.1961L46.6028 18.8066L44.2422 13.1961V21.8947H42.5768Z" fill="black"/>
<path d="M53.2255 21.8947L56.7826 10.5768L59.0785 10.5768L62.6355 21.8947H60.663L59.8384 19.1623L55.9418 19.1623L55.1334 21.8947H53.2255ZM56.3784 17.6586L59.418 17.6586L57.8982 12.6302L56.3784 17.6586Z" fill="black"/>
<path d="M65.4102 21.8947V10.5768H67.3666L71.4572 18.4994L71.4248 10.5768H73.074V21.8947H71.2793L67.027 13.7135L67.0594 21.8947H65.4102Z" fill="black"/>
<path d="M79.5836 21.8947V12.226H76.075V10.5768L85.0323 10.5768V12.226H81.5238V21.8947H79.5836Z" fill="black"/>
<path d="M87.1603 21.8947L90.7173 10.5768L93.0132 10.5768L96.5703 21.8947H94.5977L93.7731 19.1623H89.8766L89.0681 21.8947H87.1603ZM90.3131 17.6586H93.3528L91.8329 12.6302L90.3131 17.6586Z" fill="black"/>
<path d="M110.899 21.8947V10.5768L114.876 10.5768C115.642 10.5768 116.305 10.7277 116.865 11.0296C117.436 11.3206 117.878 11.7302 118.191 12.2584C118.504 12.7865 118.66 13.4009 118.66 14.1016C118.66 14.7699 118.504 15.3681 118.191 15.8963C117.878 16.4244 117.436 16.8394 116.865 17.1412C116.305 17.4323 115.642 17.5778 114.876 17.5778H112.839V21.8947H110.899ZM112.839 15.9771H114.569C115.259 15.9771 115.787 15.8046 116.154 15.4597C116.52 15.1148 116.703 14.6567 116.703 14.0854C116.703 13.5249 116.52 13.0722 116.154 12.7272C115.787 12.3823 115.259 12.2098 114.569 12.2098H112.839V15.9771Z" fill="black"/>
<path d="M121.095 21.8947L124.652 10.5768L126.948 10.5768L130.505 21.8947H128.532L127.708 19.1623H123.811L123.003 21.8947H121.095ZM124.248 17.6586H127.287L125.768 12.6302L124.248 17.6586Z" fill="black"/>
<path d="M137.241 22.0726C136.443 22.0726 135.71 21.8462 135.042 21.3935C134.374 20.9408 133.84 20.2833 133.441 19.421C133.043 18.5479 132.843 17.4861 132.843 16.2358C132.843 14.9854 133.043 13.9291 133.441 13.0668C133.84 12.1937 134.374 11.5308 135.042 11.0781C135.71 10.6253 136.443 10.399 137.241 10.399C137.909 10.399 138.518 10.5445 139.068 10.8355C139.628 11.1158 140.108 11.5308 140.507 12.0805C140.917 12.6195 141.213 13.277 141.396 14.0531L139.65 14.5543C139.488 13.7674 139.187 13.1692 138.745 12.7596C138.313 12.35 137.823 12.1452 137.273 12.1452C136.81 12.1452 136.389 12.2961 136.012 12.5979C135.646 12.8997 135.349 13.3578 135.123 13.9722C134.907 14.5758 134.8 15.3304 134.8 16.2358C134.8 17.1412 134.907 17.9011 135.123 18.5155C135.349 19.1192 135.646 19.5719 136.012 19.8737C136.389 20.1755 136.81 20.3264 137.273 20.3264C137.823 20.3264 138.313 20.1216 138.745 19.712C139.187 19.3024 139.488 18.7042 139.65 17.9173L141.396 18.4185C141.213 19.1838 140.917 19.8413 140.507 20.3911C140.108 20.9408 139.628 21.3612 139.068 21.6522C138.518 21.9325 137.909 22.0726 137.241 22.0726Z" fill="black"/>
<path d="M144.607 21.8947V20.2456H147.453V12.226L144.607 12.226V10.5768L152.239 10.5768V12.226H149.393V20.2456H152.239V21.8947L144.607 21.8947Z" fill="black"/>
<path d="M156.372 21.8947V10.5768L163.825 10.5768V12.226L158.312 12.226V15.4597L161.982 15.4597V17.0765L158.312 17.0765V21.8947H156.372Z" fill="black"/>
<path d="M167.231 21.8947V20.2456H170.076V12.226L167.231 12.226V10.5768L174.862 10.5768V12.226H172.016V20.2456H174.862V21.8947H167.231Z" fill="black"/>
<path d="M182.487 22.0726C181.69 22.0726 180.957 21.8462 180.288 21.3935C179.62 20.9408 179.087 20.2833 178.688 19.421C178.289 18.5479 178.089 17.4861 178.089 16.2358C178.089 14.9854 178.289 13.9291 178.688 13.0668C179.087 12.1937 179.62 11.5308 180.288 11.0781C180.957 10.6253 181.69 10.399 182.487 10.399C183.156 10.399 183.765 10.5445 184.314 10.8355C184.875 11.1158 185.354 11.5308 185.753 12.0805C186.163 12.6195 186.459 13.277 186.643 14.0531L184.896 14.5543C184.735 13.7674 184.433 13.1692 183.991 12.7596C183.56 12.35 183.069 12.1452 182.52 12.1452C182.056 12.1452 181.636 12.2961 181.258 12.5979C180.892 12.8997 180.596 13.3578 180.369 13.9722C180.154 14.5758 180.046 15.3304 180.046 16.2358C180.046 17.1412 180.154 17.9011 180.369 18.5155C180.596 19.1192 180.892 19.5719 181.258 19.8737C181.636 20.1755 182.056 20.3264 182.52 20.3264C183.069 20.3264 183.56 20.1216 183.991 19.712C184.433 19.3024 184.735 18.7042 184.896 17.9173L186.643 18.4185C186.459 19.1838 186.163 19.8413 185.753 20.3911C185.354 20.9408 184.875 21.3612 184.314 21.6522C183.765 21.9325 183.156 22.0726 182.487 22.0726Z" fill="black"/>
<defs>
<linearGradient id="paint0_linear_8_3" x1="-0.287127" y1="16.2957" x2="32.3062" y2="15.6993" gradientUnits="userSpaceOnUse">
<stop stop-color="#29CCB9"/>
<stop offset="0.49" stop-color="#0091FF"/>
<stop offset="1" stop-color="#FF66B7"/>
</linearGradient>
</defs>
</svg>
