<svg width="25" height="25" viewBox="0 0 25 25" fill="none" xmlns="http://www.w3.org/2000/svg">
<rect x="0.18457" y="0.5" width="24" height="24" rx="10" fill="black"/>
<path d="M13.1627 12.9147C13.1627 15.3046 11.2268 17.242 8.83898 17.242C6.45113 17.242 4.51514 15.3046 4.51514 12.9147C4.51514 10.5247 6.45098 8.58716 8.83898 8.58716C11.227 8.58716 13.1627 10.5247 13.1627 12.9147Z" fill="white"/>
<path d="M17.9059 12.9146C17.9059 15.1642 16.938 16.9886 15.744 16.9886C14.55 16.9886 13.582 15.1642 13.582 12.9146C13.582 10.665 14.5498 8.84058 15.7438 8.84058C16.9378 8.84058 17.9057 10.6644 17.9057 12.9146" fill="white"/>
<path d="M19.8458 12.9146C19.8458 14.9297 19.5054 16.5642 19.0854 16.5642C18.6654 16.5642 18.3252 14.9301 18.3252 12.9146C18.3252 10.899 18.6656 9.26489 19.0854 9.26489C19.5052 9.26489 19.8458 10.8989 19.8458 12.9146Z" fill="white"/>
</svg>
