<svg width="25" height="25" viewBox="0 0 25 25" fill="none" xmlns="http://www.w3.org/2000/svg">
<rect x="0.18457" y="0.5" width="24" height="24" rx="10" fill="black"/>
<path d="M19.1598 8.69146C18.6816 8.88985 18.1698 9.02634 17.6303 9.08824C18.1807 8.77566 18.6016 8.28124 18.8023 7.69223C18.2859 7.97674 17.7148 8.18281 17.1074 8.29931C16.6232 7.80873 15.9309 7.5 15.1627 7.5C13.69 7.5 12.4965 8.62918 12.4965 10.021C12.4965 10.2213 12.5221 10.4135 12.5664 10.5957C10.3511 10.4977 8.38726 9.49039 7.07385 7.96867C6.8431 8.33929 6.71188 8.7699 6.71188 9.23856C6.71188 10.1155 7.18354 10.8845 7.89651 11.3366C7.4606 11.3247 7.05029 11.2105 6.69076 11.0225V11.0529C6.69076 12.2759 7.60888 13.2955 8.82763 13.5277C8.60541 13.5834 8.36816 13.6157 8.12726 13.6157C7.95623 13.6157 7.79291 13.6 7.63001 13.5715C7.97288 14.5727 8.95438 15.3016 10.1244 15.3235C9.21479 15.9983 8.06185 16.4004 6.81954 16.4004C6.60788 16.4004 6.39663 16.3908 6.18457 16.3666C7.3696 17.0817 8.76832 17.5 10.2792 17.5C15.1814 17.5 17.8602 13.6572 17.8602 10.3293C17.8602 10.2232 17.8602 10.1151 17.8517 10.0067C18.3745 9.65417 18.8271 9.20742 19.1846 8.70108L19.1598 8.69146Z" fill="white"/>
</svg>
